<?xml version="1.0" encoding="UTF-8"?>
<svg version="1.1" xmlns="http://www.w3.org/2000/svg" width="48" height="48">
<path d="M0 0 C1.59454983 -0.01652887 3.1890265 -0.04377886 4.78320312 -0.08203125 C7.0889303 -0.13704341 9.39292205 -0.15871051 11.69921875 -0.17333984 C12.40568542 -0.19600922 13.1121521 -0.21867859 13.84002686 -0.24203491 C17.71614173 -0.22563966 20.12202507 0.35731264 23.08691406 2.7578125 C28.2366889 7.96149629 26.94984542 14.77214221 27.00244141 21.69775391 C27.01897028 23.29230374 27.04622026 24.8867804 27.08447266 26.48095703 C27.13948482 28.78668421 27.16115192 31.09067595 27.17578125 33.39697266 C27.19845062 34.10343933 27.22112 34.80990601 27.24447632 35.53778076 C27.22808107 39.41389564 26.64512876 41.81977898 24.24462891 44.78466797 C19.04094512 49.93444281 12.23029919 48.64759933 5.3046875 48.70019531 C3.71013767 48.71672418 2.115661 48.74397417 0.52148438 48.78222656 C-1.7842428 48.83723873 -4.08823455 48.85890583 -6.39453125 48.87353516 C-7.10099792 48.89620453 -7.8074646 48.9188739 -8.53533936 48.94223022 C-12.41145423 48.92583498 -14.81733757 48.34288267 -17.78222656 45.94238281 C-22.9320014 40.73869903 -21.64515792 33.9280531 -21.69775391 27.00244141 C-21.71428278 25.40789158 -21.74153276 23.81341491 -21.77978516 22.21923828 C-21.83479732 19.9135111 -21.85646442 17.60951936 -21.87109375 15.30322266 C-21.89376312 14.59675598 -21.9164325 13.89028931 -21.93978882 13.16241455 C-21.92339357 9.28629967 -21.34044126 6.88041633 -18.93994141 3.91552734 C-13.73625762 -1.23424749 -6.92561169 0.05259598 0 0 Z " fill="#000000" transform="translate(21.34765625,-0.35009765625)"/>
<path d="M0 0 C0.74886475 0.00523682 1.49772949 0.01047363 2.26928711 0.01586914 C3.07817383 0.0190918 3.88706055 0.02231445 4.72045898 0.02563477 C5.5705957 0.03401367 6.42073242 0.04239258 7.29663086 0.05102539 C8.15063477 0.05553711 9.00463867 0.06004883 9.88452148 0.06469727 C12.00108749 0.07652166 14.11761771 0.0944577 16.23413086 0.11352539 C16.23413086 1.43352539 16.23413086 2.75352539 16.23413086 4.11352539 C11.61413086 4.11352539 6.99413086 4.11352539 2.23413086 4.11352539 C2.23413086 7.08352539 2.23413086 10.05352539 2.23413086 13.11352539 C6.52413086 13.11352539 10.81413086 13.11352539 15.23413086 13.11352539 C15.23413086 14.43352539 15.23413086 15.75352539 15.23413086 17.11352539 C10.94413086 17.11352539 6.65413086 17.11352539 2.23413086 17.11352539 C2.23413086 21.07352539 2.23413086 25.03352539 2.23413086 29.11352539 C0.91413086 29.44352539 -0.40586914 29.77352539 -1.76586914 30.11352539 C-3.59620969 28.28318484 -2.89629712 25.38140547 -2.89868164 22.92602539 C-2.8999707 21.67047852 -2.90125977 20.41493164 -2.90258789 19.12133789 C-2.90049316 18.46423828 -2.89839844 17.80713867 -2.89624023 17.13012695 C-2.89089148 15.12191204 -2.89618605 13.1139208 -2.90258789 11.10571289 C-2.90129883 9.85016602 -2.90000977 8.59461914 -2.89868164 7.30102539 C-2.89698975 5.55885742 -2.89698975 5.55885742 -2.89526367 3.78149414 C-2.72034589 0.17488744 -2.72034589 0.17488744 0 0 Z " fill="#EAEAEA" transform="translate(16.765869140625,8.886474609375)"/>
</svg>
