<?xml version="1.0" encoding="UTF-8"?>
<svg version="1.1" xmlns="http://www.w3.org/2000/svg" width="64" height="64">
<path d="M0 0 C1.35859131 -0.00574036 1.35859131 -0.00574036 2.74462891 -0.01159668 C4.65072752 -0.01430654 6.55686391 -0.00701051 8.46289062 0.00976562 C11.36673541 0.03118903 14.26810641 0.00993288 17.171875 -0.015625 C19.03125542 -0.01298156 20.8906343 -0.00785624 22.75 0 C24.04091553 -0.01214539 24.04091553 -0.01214539 25.35791016 -0.02453613 C31.18510181 0.0653117 34.6971938 0.95905432 39.375 4.53125 C43.5426156 9.98876125 43.96960023 14.42284557 43.90625 21.15625 C43.91199036 22.51484131 43.91199036 22.51484131 43.91784668 23.90087891 C43.92055654 25.80697752 43.91326051 27.71311391 43.89648438 29.61914062 C43.87506097 32.52298541 43.89631712 35.42435641 43.921875 38.328125 C43.91923156 40.18750542 43.91410624 42.0468843 43.90625 43.90625 C43.91434692 44.76686035 43.92244385 45.6274707 43.93078613 46.51416016 C43.8409383 52.34135181 42.94719568 55.8534438 39.375 60.53125 C33.91748875 64.6988656 29.48340443 65.12585023 22.75 65.0625 C21.39140869 65.06824036 21.39140869 65.06824036 20.00537109 65.07409668 C18.09927248 65.07680654 16.19313609 65.06951051 14.28710938 65.05273438 C11.38326459 65.03131097 8.48189359 65.05256712 5.578125 65.078125 C3.71874458 65.07548156 1.8593657 65.07035624 0 65.0625 C-1.29091553 65.07464539 -1.29091553 65.07464539 -2.60791016 65.08703613 C-8.43510181 64.9971883 -11.9471938 64.10344568 -16.625 60.53125 C-20.7926156 55.07373875 -21.21960023 50.63965443 -21.15625 43.90625 C-21.1600769 43.00052246 -21.16390381 42.09479492 -21.16784668 41.16162109 C-21.17055654 39.25552248 -21.16326051 37.34938609 -21.14648438 35.44335938 C-21.12506097 32.53951459 -21.14631712 29.63814359 -21.171875 26.734375 C-21.16923156 24.87499458 -21.16410624 23.0156157 -21.15625 21.15625 C-21.16434692 20.29563965 -21.17244385 19.4350293 -21.18078613 18.54833984 C-21.0909383 12.72114819 -20.19719568 9.2090562 -16.625 4.53125 C-11.16748875 0.3636344 -6.73340443 -0.06335023 0 0 Z " fill="#010101" transform="translate(20.625,-0.53125)"/>
<path d="M0 0 C0.91120605 0.01047363 1.82241211 0.02094727 2.76123047 0.03173828 C3.74736328 0.03818359 4.73349609 0.04462891 5.74951172 0.05126953 C7.29832031 0.07640625 7.29832031 0.07640625 8.87841797 0.10205078 C9.91869141 0.11107422 10.95896484 0.12009766 12.03076172 0.12939453 C14.60520889 0.15301331 17.17920009 0.18594929 19.75341797 0.22705078 C20.13560564 1.88319735 20.46736899 3.55162102 20.75341797 5.22705078 C19.75341797 6.22705078 19.75341797 6.22705078 17.98754883 6.34057617 C17.23868408 6.33533936 16.48981934 6.33010254 15.71826172 6.32470703 C14.909375 6.32148438 14.10048828 6.31826172 13.26708984 6.31494141 C12.41695312 6.3065625 11.56681641 6.29818359 10.69091797 6.28955078 C9.83691406 6.28503906 8.98291016 6.28052734 8.10302734 6.27587891 C5.98646133 6.26405452 3.86993112 6.24611847 1.75341797 6.22705078 C1.75341797 9.85705078 1.75341797 13.48705078 1.75341797 17.22705078 C7.36341797 17.22705078 12.97341797 17.22705078 18.75341797 17.22705078 C19.08341797 18.87705078 19.41341797 20.52705078 19.75341797 22.22705078 C13.81341797 22.22705078 7.87341797 22.22705078 1.75341797 22.22705078 C1.75341797 27.83705078 1.75341797 33.44705078 1.75341797 39.22705078 C-0.22658203 39.72205078 -0.22658203 39.72205078 -2.24658203 40.22705078 C-4.79223615 37.68139666 -4.49382213 36.03529364 -4.5244751 32.56298828 C-4.52042664 31.79212891 -4.51637817 31.02126953 -4.51220703 30.22705078 C-4.51412048 29.43556641 -4.51603394 28.64408203 -4.51800537 27.82861328 C-4.51936721 26.15413088 -4.51567085 24.47963793 -4.50732422 22.80517578 C-4.49662443 20.23722697 -4.50721928 17.66997775 -4.52001953 15.10205078 C-4.51869794 13.47704923 -4.51613554 11.85204812 -4.51220703 10.22705078 C-4.51625549 9.45619141 -4.52030396 8.68533203 -4.5244751 7.89111328 C-4.45879166 0.45062772 -4.45879166 0.45062772 0 0 Z " fill="#F2F2F2" transform="translate(23.24658203125,11.77294921875)"/>
</svg>
